# xmcd
#
# Track frame offsets: 
#        150
#        17040
#        37923
#        57981
#        75188
#        93221
#        110549
#        128213
#        141704
#
# Disc length: 2113 seconds
#
# Revision: 0
# Processed by: cddbd v1.5.2PL0 Copyright (c) Steve Scherf et al.
# Submitted via: ExactAudioCopyFreeDBPlugin 1.0
#
DISCID=6e083f09
DTITLE=Rick Monroe - Get Loud and Get Lit
DYEAR=2008
DGENRE=Country
TTITLE0=Honky Tonk Road Trip
TTITLE1=Dear JD
TTITLE2=Just A Pretty Picture
TTITLE3=Gitty Up
TTITLE4=Love Will Bring You Back
TTITLE5=Not That Complicated
TTITLE6=If You Were Mine
TTITLE7=Ace of Spades
TTITLE8=Send Me Home
EXTD=
EXTT0=
EXTT1=
EXTT2=
EXTT3=
EXTT4=
EXTT5=
EXTT6=
EXTT7=
EXTT8=
PLAYORDER=
